{"title":"Department (2012) Hindi 1CD SCamRip XviD Mp3","uid":7279929,"size":745461624,"categoryP":"video","categoryS":"movies","magnet":"?xt=urn:btih:3458da0119e440b648483a04e5bd8cf4f3db72de&amp;dn=Department+%282012%29+Hindi+1CD+SCamRip+XviD+Mp3&amp;tr=udp%3A%2F%2Ftracker.openbittorrent.com%3A80&amp;tr=udp%3A%2F%2Fopen.demonii.com%3A1337&amp;tr=udp%3A%2F%2Ftracker.coppersurfer.tk%3A6969&amp;tr=udp%3A%2F%2Fexodus.desync.com%3A6969","seeders":0,"leechers":1,"uploader":"HDvideos","files":-1,"time":1337404897,"description":"mastitorrents.com\n  &lt;a href=&quot;\nhttp://mastitorrents.com/forums/index.php&quot; rel=&quot;nofollow&quot; target=&quot;_NEW&quot;&gt;\nhttp://mastitorrents.com/forums/index.php&lt;/a&gt;\n  &lt;a href=&quot;\nhttp://thepiratebay.se/user/HDvideos/0/7&quot; rel=&quot;nofollow&quot; target=&quot;_NEW&quot;&gt;\nhttp://thepiratebay.se/user/HDvideos/0/7&lt;/a&gt;\n\nGeneral\nFormat : AVI\nFormat/Info : Audio Video Interleave\nFile size : 701 MiB\nDuration : 2h 11mn\nOverall bit rate : 745 Kbps\nVideo #0\nID : 0\nFormat : MPEG-4 Visual\nFormat profile : Advanced Simple@L5\nFormat settings, BVOP : 2\nFormat settings, QPel : No\nFormat settings, GMC : No warppoints\nFormat settings, Matrix : Default (H.263)\nCodec ID : XVID\nCodec ID/Hint : XviD\nDuration : 2h 11mn\nBit rate : 611 Kbps\nWidth : 656 pixels\nHeight : 272 pixels\nDisplay aspect ratio : 2.40:1\nFrame rate : 25.000 fps\nColor space : YUV\nChroma subsampling : 4:2:0\nBit depth : 8 bits\nScan type : Progressive\nCompression mode : Lossy\nBits/(Pixel*Frame) : 0.137\nStream size : 575 MiB (82%)\n\nAudio #1\nID : 1\nFormat : MPEG Audio\nFormat version : Version 1\nFormat profile : Layer 3\nMode : Joint stereo\nMode extension : MS Stereo\nCodec ID : 55\nCodec ID/Hint : MP3\nDuration : 2h 11mn\nBit rate mode : Constant\nBit rate : 128 Kbps\nChannel(s) : 2 channels\nSampling rate : 44.1 KHz\nCompression mode : Lossy\nStream size : 120 MiB (17%)\n\n","torrent":{"xt":"urn:btih:3458da0119e440b648483a04e5bd8cf4f3db72de","amp;dn":"Department+%282012%29+Hindi+1CD+SCamRip+XviD+Mp3","amp;tr":["udp%3A%2F%2Ftracker.openbittorrent.com%3A80","udp%3A%2F%2Fopen.demonii.com%3A1337","udp%3A%2F%2Ftracker.coppersurfer.tk%3A6969","udp%3A%2F%2Fexodus.desync.com%3A6969"],"infoHash":"3458da0119e440b648483a04e5bd8cf4f3db72de","infoHashBuffer":{"type":"Buffer","data":[52,88,218,1,25,228,64,182,72,72,58,4,229,189,140,244,243,219,114,222]},"announce":[],"urlList":[]}}